<?xml version="1.0" encoding="UTF-8"?>
<!-- Generator: Adobe Illustrator 19.1.0, SVG Export Plug-In . SVG Version: 6.00 Build 0)  -->
<!DOCTYPE svg PUBLIC "-//W3C//DTD SVG 1.1//EN" "http://www.w3.org/Graphics/SVG/1.1/DTD/svg11.dtd">
<svg version="1.1" id="Layer_1" xmlns="http://www.w3.org/2000/svg" xmlns:xlink="http://www.w3.org/1999/xlink" x="0px" y="0px" viewBox="0 0 316.1 99.1" enable-background="new 0 0 316.1 99.1" xml:space="preserve">
<g>
	<path fill="#FFFFFF" d="M273.1,46c0.8,0,1.6,0.3,2.1,0.8c0.8,0.8,1.1,2.1,1.1,4v0.5l-7.4,0c0-1.9,0.5-3.4,1.3-4.2   C271,46.2,271.7,46,273.1,46 M278.9,44.4c-1.6-1.6-3.4-2.4-5.8-2.4c-6.3,0-10.8,4.8-10.8,11.6c0,7.4,4.8,12.7,11.1,12.7   c4.7,0,8.5-2.9,8.5-2.9l-1.8-3.7c0,0-2.4,2.1-5.6,2.1c-1.6,0-2.9-0.8-4-1.6c-1.1-1.3-1.6-2.9-1.6-5l12.9,0   C281.8,55.2,282.6,48.1,278.9,44.4 M141.6,46c0.8,0,1.6,0.3,2.1,0.8c0.8,0.8,1.1,2.1,1.1,4v0.5l-7.4,0c0-1.9,0.5-3.4,1.3-4.2   C139.5,46.2,140.3,46,141.6,46 M147.4,44.4c-1.6-1.6-3.4-2.4-5.8-2.4c-6.3,0-10.8,4.8-10.8,11.6c0,7.4,4.8,12.7,11.1,12.7   c4.7,0,8.4-2.9,8.4-2.9l-1.8-3.7c0,0-2.4,2.1-5.6,2.1c-1.6,0-2.9-0.8-4-1.6c-1.1-1.3-1.6-2.9-1.6-5l12.9,0   C150.3,55.2,151.1,48.1,147.4,44.4 M189.4,38c5.8,0,7.7,6.1,7.7,11.1c0,2.9-0.6,11.9-7.7,11.9c-7.4,0-7.9-9-7.9-11.9   C181.5,44.1,183.6,38,189.4,38 M189.4,33c-8.2,0-14.6,6.9-14.6,16.1c0,10,6.1,17.2,14.6,17.2c8.4,0,14.5-7.1,14.5-17.2   C203.9,39.9,197.6,33,189.4,33 M256.4,61.2c-3.7,0-6.1-3.1-6.1-7.6c0-5,3.2-7.1,6.1-7.1c2.1,0,4,1,4,1l-1.3-5.3   c0,0-1.6-0.5-3.2-0.5c-7.6,0-11.9,6.1-11.9,12.1c0,4.2,2.6,12.1,11.6,12.1c3.4,0,6.1-2.1,6.1-2.1l-1.3-4   C260.4,60,258.8,61.2,256.4,61.2 M163.2,62.1c-1.6,0-2.4-1.9-2.4-5l0-10.6l5.3,0l-1.1-3.9l-4.2,0l0-5.3l-6.1,0l0,5.3h-3.4l0.8,3.9   l2.6,0l0,12.1c0,5,2.1,7.7,6.6,7.7c3.4,0,5.8-1.6,5.8-1.6l-1.1-3.7C166.1,61,164.8,62.1,163.2,62.1 M110.9,55.2   c0-0.5-6.3-22.4-6.3-22.4l-7.9,0l-3.2,33h6.1l1.9-23h0.2l6.4,23l5.8,0l6.3-23h0.3l1.8,23l6.1,0l-2.9-33l-8.2,0   C117.3,32.8,111.2,54.7,110.9,55.2 M222.6,42.5l-7.9,0l0-1.9c0-2.6,1.9-3.2,2.4-3.2c1.6-0.3,2.6,0.5,2.6,0.5l-1.1-4.5   c0,0-1.1-0.3-2.6-0.3c-3.4,0-7.1,2.7-7.1,8.2l0,1.1l-3.4,0l0.8,3.9h2.6l0,19l5.8,0l0-19l7.6,0l0,19h6.1l0-19l6.3,0l0,19l6.1,0   l0-22.9l-12.4,0l0-1.9c0-2.6,1.8-3.2,2.4-3.2c1.6-0.3,2.7,0.5,2.7,0.5l-1.1-4.5c0,0-1.1-0.3-2.7-0.3c-3.4,0-7.1,2.7-7.1,8.2   L222.6,42.5z"/>
	<g>
		<path fill="#B9DC0C" d="M43.6,44.1c-3.4,0.8-6.8-0.3-10.2-1.4l0-2.1c1.8,0.4,3.6,0.5,5.4,0.1c7.1-1.6,12.7-11.3,23.2-6.6    c9.9,4.3,21.2,0.4,22.6-0.1l0,4.8c-4.5,1-11.5,1.6-17.9-1.2C56.3,32.8,50.6,42.6,43.6,44.1 M52.6,50.3c7-1.6,12.7-11.3,23.1-6.6    c2.9,1.3,6,1.8,8.9,2l0-3.6c-4.1,0.4-9,0.2-13.6-1.9c-10.5-4.6-16.1,5.1-23.1,6.7C43,48,38.5,45.4,33.4,44l0,2.7    C40.6,47,46.4,51.7,52.6,50.3 M60,56.5c7-1.6,12.7-11.3,23.2-6.7c0.5,0.3,0.9,0.4,1.4,0.6l0-2.3c-2.1-0.3-4.2-0.8-6.2-1.8    C68,41.7,62.3,51.5,55.3,53c-6.9,1.6-13.2-4.3-21.5-3.4h-0.3l0,5c1.6-0.8,3.2-1.4,5.1-1.6C46.8,52.1,53.1,58,60,56.5 M62.7,58.7    c-6.9,1.6-13.2-4.4-21.6-3.5c-2.7,0.3-5.3,1.6-7.7,3.2l0,7.3c2-2.3,6.2-6.1,12.4-6.6c8.4-0.7,14.7,5.1,21.6,3.5    c5.5-1.2,10.3-7.5,17.1-7.9l0-3.2C74.9,48.2,69.4,57.2,62.7,58.7"/>
	</g>
</g>
</svg>